<svg xmlns="http://www.w3.org/2000/svg" width="2002" height="2002" viewBox="0 0 2002 2002">
  <metadata><?xpacket begin="﻿" id="W5M0MpCehiHzreSzNTczkc9d"?>
<x:xmpmeta xmlns:x="adobe:ns:meta/" x:xmptk="Adobe XMP Core 5.6-c140 79.160451, 2017/05/06-01:08:21        ">
   <rdf:RDF xmlns:rdf="http://www.w3.org/1999/02/22-rdf-syntax-ns#">
      <rdf:Description rdf:about=""/>
   </rdf:RDF>
</x:xmpmeta>
                                                                                                    
                                                                                                    
                                                                                                    
                                                                                                    
                                                                                                    
                                                                                                    
                                                                                                    
                                                                                                    
                                                                                                    
                                                                                                    
                                                                                                    
                                                                                                    
                                                                                                    
                                                                                                    
                                                                                                    
                                                                                                    
                                                                                                    
                                                                                                    
                                                                                                    
                                                                                                    
                           
<?xpacket end="w"?></metadata>
<defs>
    <style>
      .cls-1 {
        fill: #ff98d7;
        fill-rule: evenodd;
      }
    </style>
  </defs>
  <path id="Shape_1_copy" data-name="Shape 1 copy" class="cls-1" d="M1001,1001L1.271,969.648l2.2-41.968Zm0,0L7.808,882.635l5.849-41.616Zm0,0L21.9,796.523l9.454-40.948Zm0,0L43.45,711.967,56.437,672Zm0,0L72.285,629.611l16.421-38.685Zm0,0L108.188,550.081l19.729-37.106Zm0,0L150.885,473.984l22.889-35.246Zm0,0L200.052,401.9l25.874-33.117Zm0,0L255.316,334.369l28.661-30.735Zm0,0L316.254,271.915l31.231-28.12Zm0,0L382.4,215.01l33.563-25.291Zm0,0L453.261,164.087l35.639-22.27Zm0,0L528.287,119.533l37.445-19.079Zm0,0L606.911,81.688l38.965-15.743Zm0,0L688.534,50.839l40.189-12.287Zm0,0L772.535,27.221l41.107-8.738Zm0,0L858.275,11.015l41.712-5.122Zm0,0L945.1,2.343l42-1.467Zm0,0L1032.35,1.271l41.97,2.2Zm0,0L1119.36,7.807l41.62,5.849Zm0,0L1205.48,21.9l40.95,9.454Zm0,0L1290.03,43.45,1330,56.437Zm0,0L1372.39,72.285l38.68,16.421Zm0,0,450.92-892.812,37.1,19.729Zm0,0,527.02-850.115,35.24,22.889Zm0,0,599.1-800.947,33.12,25.873Zm0,0,666.63-745.684,30.74,28.661Zm0,0,729.08-684.746,28.12,31.231Zm0,0,785.99-618.6,25.29,33.563Zm0,0,836.91-547.739,22.27,35.64Zm0,0,881.47-472.713,19.08,37.445Zm0,0,919.31-394.089,15.75,38.965Zm0,0,950.16-312.466,12.29,40.189Zm0,0,973.78-228.465,8.74,41.107Zm0,0,989.99-142.725,5.12,41.712Zm0,0,998.66-55.9,1.46,42Zm0,0,999.73,31.35-2.2,41.97Zm0,0L0.876,1014.9l1.467,42Zm0,0L5.893,1102.01l5.122,41.72Zm0,0L18.484,1188.36l8.738,41.11Zm0,0L38.552,1273.28l12.287,40.19Zm0,0L65.945,1356.12l15.743,38.97Zm0,0L100.454,1436.27l19.079,37.44Zm0,0L141.817,1513.1l22.27,35.64Zm0,0L189.719,1586.03l25.291,33.57Zm0,0L243.8,1654.52l28.121,31.23Zm0,0L303.634,1718.02l30.735,28.66Zm0,0L368.78,1776.07l33.117,25.88Zm0,0L438.738,1828.23l35.246,22.88Zm0,0L512.975,1874.08l37.107,19.73Zm0,0L590.927,1913.29l38.684,16.43Zm0,0L672,1945.56l39.968,12.99Zm0,0L755.575,1970.64l40.948,9.46Zm0,0L841.019,1988.34l41.616,5.85Zm0,0-73.32,997.53,41.968,2.2Zm0,0,13.9,1000.12,42-1.46Zm0,0,101.01,995.11,41.72-5.12Zm0,0,187.36,982.52,41.11-8.74Zm0,0,272.28,962.45,40.19-12.29Zm0,0,355.12,935.06,38.97-15.75Zm0,0,435.27,900.55,37.44-19.08Zm0,0,512.1,859.18,35.64-22.27Zm0,0,585.03,811.28,33.57-25.29Zm0,0,653.52,757.2,31.23-28.12Zm0,0,717.02,697.37,28.66-30.74Zm0,0,775.07,632.22,25.88-33.12Zm0,0,827.23,562.26,22.88-35.24Zm0,0,873.08,488.02,19.73-37.1Zm0,0,912.29,410.07,16.43-38.68Zm0,0,944.56,329,12.99-39.97Zm0,0,969.64,245.43,9.46-40.95Zm0,0,987.34,159.98,5.85-41.62Z"/>
</svg>
