<svg xmlns="http://www.w3.org/2000/svg" width="296" height="157" viewBox="0 0 296 157">
  <metadata><?xpacket begin="﻿" id="W5M0MpCehiHzreSzNTczkc9d"?>
<x:xmpmeta xmlns:x="adobe:ns:meta/" x:xmptk="Adobe XMP Core 5.6-c140 79.160451, 2017/05/06-01:08:21        ">
   <rdf:RDF xmlns:rdf="http://www.w3.org/1999/02/22-rdf-syntax-ns#">
      <rdf:Description rdf:about=""/>
   </rdf:RDF>
</x:xmpmeta>
                                                                                                    
                                                                                                    
                                                                                                    
                                                                                                    
                                                                                                    
                                                                                                    
                                                                                                    
                                                                                                    
                                                                                                    
                                                                                                    
                                                                                                    
                                                                                                    
                                                                                                    
                                                                                                    
                                                                                                    
                                                                                                    
                                                                                                    
                                                                                                    
                                                                                                    
                                                                                                    
                           
<?xpacket end="w"?></metadata>
<defs>
    <style>
      .cls-1 {
        fill: #00337f;
      }

      .cls-1, .cls-2 {
        fill-rule: evenodd;
      }

      .cls-2 {
        fill: #aa0054;
      }
    </style>
  </defs>
  <path id="_14_99_zł_h" data-name="14,99 zł/h" class="cls-1" d="M144.468,146.707l-1.37-15.66-7.549.661a3.85,3.85,0,0,1-.934,1.2,14.151,14.151,0,0,1-1.664,1.365,17.024,17.024,0,0,1-1.86,1.147,4.3,4.3,0,0,1-1.482.543l0.594,6.794a7.006,7.006,0,0,0,1.653-.38,12.419,12.419,0,0,0,1.794-.787,13.069,13.069,0,0,0,1.58-.984,3.827,3.827,0,0,0,1.009-1.013l0.68,7.771-5.525.483,0.58,6.639,18.017-1.576-0.581-6.639Zm24.09,9.579-0.424-4.842,3.424-.3-0.58-6.639-3.425.3-1.38-15.777-5.059.443L150.16,146.327l0.58,6.638,10-.875,0.423,4.843Zm-7.952-15.595,0.41,4.686-3.58.313Zm18.055,15.891,1.565-6.314-0.629-7.186-6.109.535,0.628,7.185,2.218-.194-0.864,6.254Zm3.741-15.5a8.935,8.935,0,0,0,2.3,2.711,9.335,9.335,0,0,0,3.242,1.644,10.68,10.68,0,0,0,3.931.345,6.107,6.107,0,0,0,4.087-1.695,4.8,4.8,0,0,1-.9,3.364,4,4,0,0,1-2.915,1.416,6.645,6.645,0,0,1-5.009-1.687l-3.669,5.122a12.059,12.059,0,0,0,9.122,2.98,10.478,10.478,0,0,0,4.581-1.424,9.84,9.84,0,0,0,3.247-3.216,13.63,13.63,0,0,0,1.8-4.8,22.956,22.956,0,0,0,.22-6.217,21.842,21.842,0,0,0-1.206-5.718,12.715,12.715,0,0,0-2.4-4.119,8.764,8.764,0,0,0-3.483-2.391,10.2,10.2,0,0,0-4.5-.531,10.9,10.9,0,0,0-4.039,1.121,10.57,10.57,0,0,0-3.107,2.357,9.254,9.254,0,0,0-1.907,3.295,9.552,9.552,0,0,0-.444,3.9A8.806,8.806,0,0,0,182.4,141.086Zm10.274-7.825a3.486,3.486,0,0,1,1.119.689,3.932,3.932,0,0,1,.819,1.07,3.446,3.446,0,0,1,.391,1.323,3.154,3.154,0,0,1-.77,2.409,3.34,3.34,0,0,1-4.669.409,3.144,3.144,0,0,1-1.176-2.239,3.436,3.436,0,0,1,.154-1.371,3.925,3.925,0,0,1,.621-1.195,3.452,3.452,0,0,1,.982-0.873A2.886,2.886,0,0,1,192.676,133.261Zm11.866,5.888a8.952,8.952,0,0,0,2.3,2.711,9.335,9.335,0,0,0,3.242,1.644,10.678,10.678,0,0,0,3.931.345,6.107,6.107,0,0,0,4.087-1.695,4.8,4.8,0,0,1-.9,3.364,4,4,0,0,1-2.915,1.416,6.647,6.647,0,0,1-5.01-1.687l-3.669,5.122a12.062,12.062,0,0,0,9.123,2.98,10.478,10.478,0,0,0,4.58-1.424,9.843,9.843,0,0,0,3.248-3.216,13.61,13.61,0,0,0,1.8-4.8,22.954,22.954,0,0,0,.221-6.217,21.842,21.842,0,0,0-1.206-5.718,12.715,12.715,0,0,0-2.4-4.119,8.761,8.761,0,0,0-3.484-2.391,10.2,10.2,0,0,0-4.5-.531,10.9,10.9,0,0,0-4.039,1.121,10.57,10.57,0,0,0-3.107,2.357,9.242,9.242,0,0,0-1.908,3.295,9.569,9.569,0,0,0-.443,3.9A8.821,8.821,0,0,0,204.542,139.149Zm10.275-7.825a3.486,3.486,0,0,1,1.119.689,3.952,3.952,0,0,1,.819,1.07,3.444,3.444,0,0,1,.39,1.323,3.15,3.15,0,0,1-.769,2.409,3.34,3.34,0,0,1-4.67.408,3.147,3.147,0,0,1-1.176-2.238,3.419,3.419,0,0,1,.155-1.371,3.917,3.917,0,0,1,.62-1.2,3.468,3.468,0,0,1,.983-0.872A2.886,2.886,0,0,1,214.817,131.324ZM232.3,145.712l13.046-1.141-0.333-3.808-7.238.633,6.247-8.928-0.287-3.28-12.345,1.08,0.333,3.807,6.567-.574-6.277,8.931Zm14.929-5.5a4.375,4.375,0,0,0,1.486,3.2,4.763,4.763,0,0,0,3.514.843,11.315,11.315,0,0,0,2.326-.469,10.2,10.2,0,0,0,2.169-.927l-1.059-4.039a3.27,3.27,0,0,1-.731.388,2.8,2.8,0,0,1-.748.184q-1.431.124-1.584-1.632l-0.4-4.54,3.518-2.138-1.514-2.848-2.317,1.413-0.625-7.147-5.545.486,0.863,9.87-2.319,1.383,1.513,2.848,1.119-.658Zm22.942-18.77-13.211,22.109,6.1-.533,13.24-22.112Zm24.076,8.636a12.4,12.4,0,0,0-.305-1.8,4.961,4.961,0,0,0-.8-1.745,3.957,3.957,0,0,0-1.581-1.264,5.142,5.142,0,0,0-2.617-.331,6.5,6.5,0,0,0-2.89.916,5.4,5.4,0,0,0-1.962,2.105l-0.723-8.259-5.545.485,1.871,21.38,5.545-.485-0.756-8.64a3.93,3.93,0,0,1,1.071-1.7,3.633,3.633,0,0,1,.691-0.5,1.621,1.621,0,0,1,.614-0.216,1.73,1.73,0,0,1,1.314.4,2.289,2.289,0,0,1,.656,1.611l0.758,8.669,5.545-.485Z"/>
  <path id="postanawiam_że_nauczę_się_angielskiego" data-name="postanawiam, że nauczę się angielskiego" class="cls-2" d="M10.241,51.9L9.5,43.389l4.514-.395a8.613,8.613,0,0,0,3.646-1.126,8.836,8.836,0,0,0,2.692-2.4,10.227,10.227,0,0,0,1.927-6.878,9.319,9.319,0,0,0-1.006-3.434,10.263,10.263,0,0,0-2.2-2.916,9.746,9.746,0,0,0-3.129-1.93,8.4,8.4,0,0,0-3.809-.513L0.228,24.84,2.653,52.566ZM8.4,30.814l3.813-.334a2.13,2.13,0,0,1,1.456.5,3.09,3.09,0,0,1,.905,2.282,3.434,3.434,0,0,1-.4,2.376,1.781,1.781,0,0,1-1.247.758l-4.008.351ZM44.149,47.991a14.217,14.217,0,0,0,6.713-8.2,13.562,13.562,0,0,0,.591-5.344,14.208,14.208,0,0,0-1.447-5.107,14.437,14.437,0,0,0-3.217-4.283,14.064,14.064,0,0,0-4.677-2.817,13.307,13.307,0,0,0-5.826-.71,13.82,13.82,0,0,0-5.561,1.647,14.372,14.372,0,0,0-4.2,3.476,14.05,14.05,0,0,0-2.547,4.728,13.709,13.709,0,0,0-.589,5.364,14.056,14.056,0,0,0,1.47,5.144,14.464,14.464,0,0,0,3.235,4.262,14.2,14.2,0,0,0,4.676,2.8,13.3,13.3,0,0,0,5.826.71A13.62,13.62,0,0,0,44.149,47.991ZM31.23,33.44A7.064,7.064,0,0,1,32.173,31a5.829,5.829,0,0,1,1.82-1.832,6.005,6.005,0,0,1,2.766-.872,5.883,5.883,0,0,1,4.96,1.789,6.732,6.732,0,0,1,1.388,2.2,9.52,9.52,0,0,1,.627,2.68A10.043,10.043,0,0,1,43.6,37.69a7.267,7.267,0,0,1-.922,2.461A5.781,5.781,0,0,1,40.86,42a6.658,6.658,0,0,1-5.66.515,5.908,5.908,0,0,1-2.108-1.468,7.118,7.118,0,0,1-1.371-2.221,9.5,9.5,0,0,1-.627-2.68A9.816,9.816,0,0,1,31.23,33.44ZM72.691,21.294q-0.975-.387-2.188-0.812a26.763,26.763,0,0,0-2.6-.757,23.778,23.778,0,0,0-2.847-.5,14.863,14.863,0,0,0-2.983-.034,12.535,12.535,0,0,0-3.858.947A10.214,10.214,0,0,0,55.087,22.2a8.364,8.364,0,0,0-2.02,3.128,9.378,9.378,0,0,0-.481,4.134,8.2,8.2,0,0,0,.644,2.659A5.878,5.878,0,0,0,54.677,34.1,8.563,8.563,0,0,0,57,35.554a20.279,20.279,0,0,0,3.27,1.072q1.283,0.321,2.419.536t2.02,0.453a4.482,4.482,0,0,1,1.406.6,1.264,1.264,0,0,1,.574.953,1.021,1.021,0,0,1-.41.921,3.266,3.266,0,0,1-1.7.483,11.246,11.246,0,0,1-3.251-.188,20.169,20.169,0,0,1-2.913-.808,22.887,22.887,0,0,1-2.974-1.274l-2.684,6.964a19.4,19.4,0,0,0,2.821,1.091,27.725,27.725,0,0,0,3.124.75,26.92,26.92,0,0,0,3.229.386,21.491,21.491,0,0,0,3.134-.038,16.427,16.427,0,0,0,3.755-.781,10.2,10.2,0,0,0,3.257-1.761,7.549,7.549,0,0,0,2.175-2.925,8.808,8.808,0,0,0,.547-4.278,8.477,8.477,0,0,0-.874-3.268,6.422,6.422,0,0,0-1.876-2.177,10.736,10.736,0,0,0-2.772-1.43,28.373,28.373,0,0,0-3.556-.987q-1.241-.284-2.218-0.475a12.62,12.62,0,0,1-1.664-.425,3.324,3.324,0,0,1-1.068-.556,1.223,1.223,0,0,1-.429-0.868,1.1,1.1,0,0,1,.511-1.107,3.546,3.546,0,0,1,1.588-.454,8.5,8.5,0,0,1,2.585.187,22.1,22.1,0,0,1,2.431.673,21.341,21.341,0,0,1,2.522,1.039ZM97.2,16.356l-23.5,2.056,0.581,6.639,7.977-.7L84.1,45.44l7.588-.664L89.839,23.689l7.938-.695Zm-0.57,27.988,7.743-.677,1.16-5.571,7.354-.643,2.148,5.282,7.7-.674-12-26.889-6.926.606Zm9.587-11.424L108.03,24.1l3.2,8.377Zm36.6,7.383,6.032-.528L146.42,12.049l-7.588.664,1.234,14.1L127.742,13.684l-5.914.517,2.425,27.726,7.588-.664-1.192-13.629Zm7.549-.66,7.744-.677,1.159-5.571,7.355-.643,2.148,5.282,7.7-.674-12-26.889-6.926.606Zm9.588-11.424,1.816-8.816,3.2,8.377ZM187.7,21.778l-1.4,5.946L178.64,9.231l-8.211.718,13.243,26.78,6.3-.551L193,25.918l4.8,9.575,6.3-.551,8.392-28.672-8.249.722-4.29,19.539-2.49-5.606,3.394-13.637-6.965.609-1.7,8.767-3.161-8.341-6.965.609Zm35.938,11.455L221.209,5.506l-7.588.664L216.047,33.9Zm1.517-.133,7.744-.678,1.159-5.571,7.354-.643,2.148,5.282,7.705-.674-12-26.889-6.926.606Zm9.587-11.424,1.817-8.816,3.2,8.377Zm46.524,6.515L278.837,0.464l-8.249.722-4.851,13.567-7.1-12.522-8.288.725,2.425,27.726,7.588-.664-1.278-14.6,5.53,9.865,4.046-.354L272.4,14.249l1.278,14.6Zm8.085,5.471,1.565-6.315-0.629-7.185-6.109.535,0.629,7.185,2.218-.194-0.865,6.254ZM4.747,91.732l21.908-1.917-0.581-6.639L13.7,84.26,24.491,67.772,24,62.11,2.9,63.955l0.581,6.639,12.335-1.079L4.251,86.07Zm12.1-31.122-0.513-5.858-6.615.579,0.512,5.858ZM37.28,82.2L36.9,77.823l10.039-.878-0.54-6.17-10.039.878-0.342-3.905L47.768,66.72l-0.581-6.639L27.847,61.773,30.273,89.5l19.69-1.723-0.581-6.639Zm43.539,2.88,6.031-.528L84.425,56.823l-7.588.664,1.233,14.1L65.747,58.457l-5.915.517L62.258,86.7l7.588-.664L68.654,72.408Zm8.327-.728,7.744-.678L98.049,78.1l7.355-.643,2.148,5.282,7.7-.674-12-26.889-6.926.606Zm9.587-11.424,1.816-8.816,3.2,8.377Zm26.973,1.083a4.538,4.538,0,0,1-1.631-1.392,7.109,7.109,0,0,1-1.051-2.151,12.5,12.5,0,0,1-.5-2.612L121.275,53.6l-7.588.664,1.247,14.254a19.3,19.3,0,0,0,1.16,5.191,12.061,12.061,0,0,0,2.6,4.16,10.906,10.906,0,0,0,4.133,2.649,13.207,13.207,0,0,0,5.759.618,13.53,13.53,0,0,0,5.453-1.54,10.91,10.91,0,0,0,3.658-3.232,11.808,11.808,0,0,0,1.914-4.555,19.212,19.212,0,0,0,.267-5.473L138.63,52.081l-7.588.664L132.289,67a12.328,12.328,0,0,1-.044,2.64,7.124,7.124,0,0,1-.663,2.281,4.67,4.67,0,0,1-1.382,1.675A4.69,4.69,0,0,1,125.707,74.008Zm18.425-3.4a14.892,14.892,0,0,0,3.263,4.358,14.3,14.3,0,0,0,4.682,2.876,12.814,12.814,0,0,0,5.731.738,15.961,15.961,0,0,0,3.562-.745,15.286,15.286,0,0,0,3.354-1.553,12.016,12.016,0,0,0,2.7-2.283,7.934,7.934,0,0,0,1.649-2.9l-6.512-3.169a4.706,4.706,0,0,1-.815,1.665,5.35,5.35,0,0,1-1.27,1.174,5.944,5.944,0,0,1-1.524.724,7.625,7.625,0,0,1-1.58.315,5.8,5.8,0,0,1-2.719-.372,6.105,6.105,0,0,1-2.146-1.445,7.265,7.265,0,0,1-1.45-2.234,8.995,8.995,0,0,1-.67-2.735,9.486,9.486,0,0,1,.142-2.629,7.3,7.3,0,0,1,.923-2.442,5.683,5.683,0,0,1,4.564-2.74,8.862,8.862,0,0,1,1.628.015,6.122,6.122,0,0,1,1.663.405,5.27,5.27,0,0,1,1.513.93A4.945,4.945,0,0,1,162,60.149l5.436-4.647a10.846,10.846,0,0,0-4.762-4.01,15.369,15.369,0,0,0-12.939.679,14.232,14.232,0,0,0-4.159,3.551,13.626,13.626,0,0,0-2.4,4.656,13.786,13.786,0,0,0-.516,5.082A14.264,14.264,0,0,0,144.132,70.605Zm26.846,6.584,21.908-1.917-0.581-6.639-12.374,1.083,10.791-16.487-0.5-5.662-21.091,1.845,0.581,6.639,12.335-1.079L170.483,71.527Zm44.511,4.566,1.02-4.024a4.209,4.209,0,0,1-2.1-.21,1.189,1.189,0,0,1-.754-1A2.31,2.31,0,0,1,214.251,75a8.439,8.439,0,0,1,1.943-1.764l-0.581-6.639-12.1,1.059-0.383-4.374,10.039-.878-0.539-6.17-10.04.878L202.248,53.2,214,52.176l-0.581-6.639L194.079,47.23l2.426,27.726,15.681-1.372a8.36,8.36,0,0,0-2.318,2.406,3.978,3.978,0,0,0-.635,2.377,3.106,3.106,0,0,0,1.655,2.334,9.259,9.259,0,0,0,4.6,1.053h0Zm30.858-36.3q-0.975-.387-2.189-0.812a26.8,26.8,0,0,0-2.595-.757,23.79,23.79,0,0,0-2.847-.5,14.855,14.855,0,0,0-2.983-.034,12.546,12.546,0,0,0-3.858.947,10.224,10.224,0,0,0-3.133,2.065,8.371,8.371,0,0,0-2.02,3.128,9.391,9.391,0,0,0-.481,4.135,8.222,8.222,0,0,0,.644,2.659,5.876,5.876,0,0,0,1.448,1.979,8.566,8.566,0,0,0,2.322,1.449,20.289,20.289,0,0,0,3.27,1.072q1.282,0.321,2.419.536t2.02,0.453a4.485,4.485,0,0,1,1.406.605,1.262,1.262,0,0,1,.573.953,1.023,1.023,0,0,1-.409.921,3.271,3.271,0,0,1-1.7.483,11.248,11.248,0,0,1-3.251-.188,20.207,20.207,0,0,1-2.914-.807,22.871,22.871,0,0,1-2.973-1.275l-2.685,6.964a19.411,19.411,0,0,0,2.821,1.091,27.737,27.737,0,0,0,3.124.75,26.934,26.934,0,0,0,3.229.386,21.485,21.485,0,0,0,3.134-.038,16.42,16.42,0,0,0,3.754-.781,10.2,10.2,0,0,0,3.258-1.761A7.551,7.551,0,0,0,247.9,66.15a8.806,8.806,0,0,0,.547-4.278,8.476,8.476,0,0,0-.874-3.268,6.422,6.422,0,0,0-1.877-2.177A10.723,10.723,0,0,0,242.927,55a28.389,28.389,0,0,0-3.556-.987q-1.24-.284-2.218-0.475a12.612,12.612,0,0,1-1.664-.425,3.318,3.318,0,0,1-1.068-.556,1.223,1.223,0,0,1-.429-0.867,1.1,1.1,0,0,1,.511-1.107,3.547,3.547,0,0,1,1.587-.454,8.505,8.505,0,0,1,2.585.187,22.1,22.1,0,0,1,2.431.673,21.321,21.321,0,0,1,2.522,1.038ZM260.125,69.39L257.7,41.663l-7.587.664,2.425,27.726Zm23.731,6.384,1.021-4.024a4.216,4.216,0,0,1-2.1-.21,1.189,1.189,0,0,1-.754-1,2.315,2.315,0,0,1,.592-1.527,8.444,8.444,0,0,1,1.944-1.764l-0.581-6.639-12.1,1.059L271.5,57.3l10.04-.878L281,50.25l-10.039.878-0.342-3.905,11.751-1.028-0.58-6.639-19.34,1.692,2.426,27.726L280.554,67.6a8.352,8.352,0,0,0-2.319,2.407,3.977,3.977,0,0,0-.635,2.377,3.108,3.108,0,0,0,1.655,2.334,9.26,9.26,0,0,0,4.6,1.053h0ZM7.035,130.882l7.744-.678,1.159-5.571,7.354-.643,2.148,5.281,7.7-.674-12-26.888-6.926.606Zm9.587-11.424,1.817-8.816,3.2,8.377ZM54,126.773l6.031-.528L57.607,98.519l-7.588.664,1.233,14.1L38.93,100.153l-5.915.518L35.441,128.4l7.588-.664L41.836,114.1Zm29.534-2.584,6.265-.548L88.51,108.879l-11.362.995,0.478,5.467,4.786-.419a7.776,7.776,0,0,1-5.6,3.244,6.293,6.293,0,0,1-2.653-.3,5.807,5.807,0,0,1-2.134-1.309,6.914,6.914,0,0,1-1.5-2.17,9.639,9.639,0,0,1-.518-5.916,7.334,7.334,0,0,1,1.081-2.436,5.845,5.845,0,0,1,1.812-1.693,5.667,5.667,0,0,1,2.442-.765,6.567,6.567,0,0,1,3.55.693,6.4,6.4,0,0,1,2.682,2.421l5.263-4.828a9.737,9.737,0,0,0-2.127-2.352,12.551,12.551,0,0,0-2.794-1.684,12.782,12.782,0,0,0-3.277-.933,15.383,15.383,0,0,0-3.616-.1,14.479,14.479,0,0,0-5.49,1.562,14.213,14.213,0,0,0-4.238,3.322,13.607,13.607,0,0,0-3.227,10.179,15.883,15.883,0,0,0,1.619,5.957A13.61,13.61,0,0,0,67,122.055a12.3,12.3,0,0,0,4.525,2.417,14.045,14.045,0,0,0,5.22.508,10.282,10.282,0,0,0,6.591-3.095Zm17.588-1.539L98.7,94.924l-7.588.664,2.426,27.726Zm11.754-7.718-0.382-4.373,10.039-.879L122,103.51l-10.039.879-0.342-3.906,11.752-1.028-0.581-6.639-19.34,1.692,2.426,27.726,19.69-1.723-0.581-6.639Zm36.341,3.51-0.581-6.638-12.53,1.1-1.845-21.088-7.588.664L129.1,120.2Zm20.463-26.934q-0.975-.387-2.188-0.812a26.8,26.8,0,0,0-2.595-.757,23.807,23.807,0,0,0-2.848-.5,14.846,14.846,0,0,0-2.982-.034,12.532,12.532,0,0,0-3.858.948,10.212,10.212,0,0,0-3.133,2.064,8.358,8.358,0,0,0-2.02,3.128,9.362,9.362,0,0,0-.481,4.134,8.192,8.192,0,0,0,.644,2.659,5.9,5.9,0,0,0,1.447,1.979,8.569,8.569,0,0,0,2.323,1.449,20.337,20.337,0,0,0,3.27,1.072q1.283,0.321,2.419.536t2.02,0.453a4.481,4.481,0,0,1,1.405.605,1.262,1.262,0,0,1,.574.953,1.02,1.02,0,0,1-.41.921,3.264,3.264,0,0,1-1.7.484,11.282,11.282,0,0,1-3.252-.188,20.241,20.241,0,0,1-2.913-.808,22.937,22.937,0,0,1-2.974-1.274l-2.684,6.963a19.376,19.376,0,0,0,2.82,1.092,27.81,27.81,0,0,0,3.124.749,26.891,26.891,0,0,0,3.23.387,21.582,21.582,0,0,0,3.133-.038,16.417,16.417,0,0,0,3.755-.781,10.18,10.18,0,0,0,3.257-1.761,7.54,7.54,0,0,0,2.175-2.925,8.819,8.819,0,0,0,.548-4.278,8.474,8.474,0,0,0-.875-3.268,6.4,6.4,0,0,0-1.876-2.177,10.726,10.726,0,0,0-2.772-1.43,28.472,28.472,0,0,0-3.556-.988q-1.24-.284-2.218-0.475a12.572,12.572,0,0,1-1.664-.425,3.324,3.324,0,0,1-1.069-.556,1.222,1.222,0,0,1-.428-0.867,1.1,1.1,0,0,1,.511-1.107,3.539,3.539,0,0,1,1.587-.454,8.507,8.507,0,0,1,2.585.187,22.164,22.164,0,0,1,2.431.673,21.39,21.39,0,0,1,2.522,1.038Zm13.779,23.94-0.7-8.006,1.91-2.371,7.741,9.593,8.716-.762L189.048,99.533,198,86.236l-8.561.749-7.482,11.279L181.035,87.72l-7.588.664,2.426,27.726ZM210.31,113.1l-2.426-27.727-7.588.664,2.426,27.726Zm11.754-7.718-0.383-4.374,10.039-.878-0.539-6.17-10.04.878L220.8,90.931,232.551,89.9l-0.581-6.639-19.339,1.692,2.426,27.726,19.689-1.722-0.581-6.639Zm34.551,3.666,6.265-.548-1.292-14.761-11.362.994L250.7,100.2l4.786-.418a7.775,7.775,0,0,1-5.6,3.245,6.3,6.3,0,0,1-2.654-.3,5.828,5.828,0,0,1-2.133-1.309,6.927,6.927,0,0,1-1.5-2.17,9.645,9.645,0,0,1-.517-5.916,7.337,7.337,0,0,1,1.08-2.436,5.853,5.853,0,0,1,1.813-1.693,5.656,5.656,0,0,1,2.442-.765,6.578,6.578,0,0,1,3.551.693,6.407,6.407,0,0,1,2.682,2.421l5.263-4.828a9.74,9.74,0,0,0-2.127-2.352A12.562,12.562,0,0,0,255,82.686a12.788,12.788,0,0,0-3.278-.933,15.381,15.381,0,0,0-3.615-.1,14.478,14.478,0,0,0-5.49,1.562,14.2,14.2,0,0,0-4.238,3.322,13.6,13.6,0,0,0-3.227,10.179,15.9,15.9,0,0,0,1.619,5.958,13.6,13.6,0,0,0,3.311,4.235,12.312,12.312,0,0,0,4.525,2.418,14.044,14.044,0,0,0,5.22.507,10.278,10.278,0,0,0,6.591-3.095Zm28.032-3.4a14.215,14.215,0,0,0,6.713-8.2,13.58,13.58,0,0,0,.591-5.344A14.2,14.2,0,0,0,290.5,87a14.431,14.431,0,0,0-3.217-4.283,14.067,14.067,0,0,0-4.678-2.818,13.3,13.3,0,0,0-5.826-.71,13.825,13.825,0,0,0-5.561,1.647,14.386,14.386,0,0,0-4.2,3.477,14.057,14.057,0,0,0-2.546,4.728,13.706,13.706,0,0,0-.59,5.364,14.072,14.072,0,0,0,1.47,5.144,14.441,14.441,0,0,0,3.235,4.262,14.184,14.184,0,0,0,4.676,2.8,13.284,13.284,0,0,0,5.826.71A13.615,13.615,0,0,0,284.647,105.649ZM271.728,91.1a7.084,7.084,0,0,1,.943-2.443,5.839,5.839,0,0,1,1.82-1.831,6.007,6.007,0,0,1,2.767-.872,5.885,5.885,0,0,1,4.96,1.789,6.741,6.741,0,0,1,1.388,2.2,9.534,9.534,0,0,1,.627,2.68,10.107,10.107,0,0,1-.134,2.727,7.293,7.293,0,0,1-.922,2.461,5.788,5.788,0,0,1-1.818,1.851,6.657,6.657,0,0,1-5.66.515,5.916,5.916,0,0,1-2.109-1.469,7.139,7.139,0,0,1-1.371-2.221,9.492,9.492,0,0,1-.626-2.68A9.823,9.823,0,0,1,271.728,91.1Z"/>
</svg>
